PathFileType	4	(X/Y/Z)	C:/Users/Carlo/Dropbox/Carlos/SARAH/CongressoMarcha2025/WorkshopOpenSim/C3D/Caso02/Walking03.c3d.trc
DataRate	CameraRate	NumFrames	NumMarkers	Units	OrigDataRate	OrigDataStartFrame	OrigNumFrames
100.000000	100.000000	2	197	mm	100.000000	50	400
Frame#	Time	PELO			PELA			PELL			PELP			LFEO			LFEA			LFEL			LFEP			LTIO			LTIA			LTIL			LTIP			LFOO			LFOA			LFOL			LFOP			RFEO			RFEA			RFEL			RFEP			RTIO			RTIA			RTIL			RTIP			RFOO			RFOA			RFOL			RFOP			LTOO			LTOA			LTOL			LTOP			RTOO			RTOA			RTOL			RTOP			HEDO			HEDA			HEDL			HEDP			LCLO			LCLA			LCLL			LCLP			RCLO			RCLA			RCLL			RCLP			TRXO			TRXA			TRXL			TRXP			LHUO			LHUA			LHUL			LHUP			LRAO			LRAA			LRAL			LRAP			LHNO			LHNA			LHNL			LHNP			RHUO			RHUA			RHUL			RHUP			RRAO			RRAA			RRAL			RRAP			RHNO			RHNA			RHNL			RHNP			LFHD			RFHD			RBHD			LSHO			LUPA			LELB			LFRM			LWRA			LWRB			LFIN			RSHO			RUPA			RELB			RFRM			RWRA			RWRB			RFIN			LTHI			LKNE			LTIB			LANK			LTOE			RKNE			RTIB			RANK			LASI			LHEE			LBHD			RTHI			RHEE			RTOE			STRN			RASI			CLAV			RPSI			C7			LPSI			RBAK			T10			LHipAngles			LKneeAngles			LAbsAnkleAngle			LAnkleAngles			RHipAngles			RKneeAngles			RAnkleAngles			RAbsAnkleAngle			LPelvisAngles			RPelvisAngles			LFootProgressAngles			RFootProgressAngles			RNeckAngles			LNeckAngles			RSpineAngles			LSpineAngles			LShoulderAngles			LElbowAngles			LWristAngles			RShoulderAngles			RElbowAngles			RWristAngles			RThoraxAngles			LThoraxAngles			RHeadAngles			LHeadAngles			LHipPower			LKneePower			LAnklePower			RHipPower			RKneePower			RAnklePower			LWaistPower			RWaistPower			LNeckPower			RNeckPower			LShoulderPower			RShoulderPower			LElbowPower			RElbowPower			LWristPower			RWristPower			LGroundReactionForce			LNormalisedGRF			RGroundReactionForce			RNormalisedGRF			LAnkleForce			RAnkleForce			RKneeForce			LKneeForce			RHipForce			LHipForce			LWaistForce			RWaistForce			LNeckForce			RNeckForce			LShoulderForce			RShoulderForce			LElbowForce			RElbowForce			LWristForce			RWristForce			LGroundReactionMoment			RGroundReactionMoment			LAnkleMoment			RAnkleMoment			RKneeMoment			LKneeMoment			RHipMoment			LHipMoment			LWaistMoment			RWaistMoment			LNeckMoment			RNeckMoment			LShoulderMoment			RShoulderMoment			LElbowMoment			RElbowMoment			LWristMoment			RWristMoment			CentreOfMass			CentreOfMassFloor			
		X1	Y1	Z1	X2	Y2	Z2	X3	Y3	Z3	X4	Y4	Z4	X5	Y5	Z5	X6	Y6	Z6	X7	Y7	Z7	X8	Y8	Z8	X9	Y9	Z9	X10	Y10	Z10	X11	Y11	Z11	X12	Y12	Z12	X13	Y13	Z13	X14	Y14	Z14	X15	Y15	Z15	X16	Y16	Z16	X17	Y17	Z17	X18	Y18	Z18	X19	Y19	Z19	X20	Y20	Z20	X21	Y21	Z21	X22	Y22	Z22	X23	Y23	Z23	X24	Y24	Z24	X25	Y25	Z25	X26	Y26	Z26	X27	Y27	Z27	X28	Y28	Z28	X29	Y29	Z29	X30	Y30	Z30	X31	Y31	Z31	X32	Y32	Z32	X33	Y33	Z33	X34	Y34	Z34	X35	Y35	Z35	X36	Y36	Z36	X37	Y37	Z37	X38	Y38	Z38	X39	Y39	Z39	X40	Y40	Z40	X41	Y41	Z41	X42	Y42	Z42	X43	Y43	Z43	X44	Y44	Z44	X45	Y45	Z45	X46	Y46	Z46	X47	Y47	Z47	X48	Y48	Z48	X49	Y49	Z49	X50	Y50	Z50	X51	Y51	Z51	X52	Y52	Z52	X53	Y53	Z53	X54	Y54	Z54	X55	Y55	Z55	X56	Y56	Z56	X57	Y57	Z57	X58	Y58	Z58	X59	Y59	Z59	X60	Y60	Z60	X61	Y61	Z61	X62	Y62	Z62	X63	Y63	Z63	X64	Y64	Z64	X65	Y65	Z65	X66	Y66	Z66	X67	Y67	Z67	X68	Y68	Z68	X69	Y69	Z69	X70	Y70	Z70	X71	Y71	Z71	X72	Y72	Z72	X73	Y73	Z73	X74	Y74	Z74	X75	Y75	Z75	X76	Y76	Z76	X77	Y77	Z77	X78	Y78	Z78	X79	Y79	Z79	X80	Y80	Z80	X81	Y81	Z81	X82	Y82	Z82	X83	Y83	Z83	X84	Y84	Z84	X85	Y85	Z85	X86	Y86	Z86	X87	Y87	Z87	X88	Y88	Z88	X89	Y89	Z89	X90	Y90	Z90	X91	Y91	Z91	X92	Y92	Z92	X93	Y93	Z93	X94	Y94	Z94	X95	Y95	Z95	X96	Y96	Z96	X97	Y97	Z97	X98	Y98	Z98	X99	Y99	Z99	X100	Y100	Z100	X101	Y101	Z101	X102	Y102	Z102	X103	Y103	Z103	X104	Y104	Z104	X105	Y105	Z105	X106	Y106	Z106	X107	Y107	Z107	X108	Y108	Z108	X109	Y109	Z109	X110	Y110	Z110	X111	Y111	Z111	X112	Y112	Z112	X113	Y113	Z113	X114	Y114	Z114	X115	Y115	Z115	X116	Y116	Z116	X117	Y117	Z117	X118	Y118	Z118	X119	Y119	Z119	X120	Y120	Z120	X121	Y121	Z121	X122	Y122	Z122	X123	Y123	Z123	X124	Y124	Z124	X125	Y125	Z125	X126	Y126	Z126	X127	Y127	Z127	X128	Y128	Z128	X129	Y129	Z129	X130	Y130	Z130	X131	Y131	Z131	X132	Y132	Z132	X133	Y133	Z133	X134	Y134	Z134	X135	Y135	Z135	X136	Y136	Z136	X137	Y137	Z137	X138	Y138	Z138	X139	Y139	Z139	X140	Y140	Z140	X141	Y141	Z141	X142	Y142	Z142	X143	Y143	Z143	X144	Y144	Z144	X145	Y145	Z145	X146	Y146	Z146	X147	Y147	Z147	X148	Y148	Z148	X149	Y149	Z149	X150	Y150	Z150	X151	Y151	Z151	X152	Y152	Z152	X153	Y153	Z153	X154	Y154	Z154	X155	Y155	Z155	X156	Y156	Z156	X157	Y157	Z157	X158	Y158	Z158	X159	Y159	Z159	X160	Y160	Z160	X161	Y161	Z161	X162	Y162	Z162	X163	Y163	Z163	X164	Y164	Z164	X165	Y165	Z165	X166	Y166	Z166	X167	Y167	Z167	X168	Y168	Z168	X169	Y169	Z169	X170	Y170	Z170	X171	Y171	Z171	X172	Y172	Z172	X173	Y173	Z173	X174	Y174	Z174	X175	Y175	Z175	X176	Y176	Z176	X177	Y177	Z177	X178	Y178	Z178	X179	Y179	Z179	X180	Y180	Z180	X181	Y181	Z181	X182	Y182	Z182	X183	Y183	Z183	X184	Y184	Z184	X185	Y185	Z185	X186	Y186	Z186	X187	Y187	Z187	X188	Y188	Z188	X189	Y189	Z189	X190	Y190	Z190	X191	Y191	Z191	X192	Y192	Z192	X193	Y193	Z193	X194	Y194	Z194	X195	Y195	Z195	X196	Y196	Z196	X197	Y197	Z197	

51	0.5	-1202.505249023438	927.7692260742192	325.9871826171876	-1072.762939453125	924.7717895507817	318.7425842285157	-1209.810180664063	925.1703491210942	196.2396240234376	-1199.657958984375	1057.687744140625	323.2245483398439	-1305.0888671875	523.5472412109377	253.7855224609376	-909.2355957031255	425.5412902832034	328.7063903808595	-1230.574951171875	512.8179321289065	-153.9530944824219	-1206.773193359375	926.2852172851567	261.1549377441407	-1400.369262695313	88.59773254394534	262.246063232422	-986.5082397460942	-2.324317932128907	248.8126831054689	-1415.216430664063	83.60929870605472	-161.4080505371094	-1309.667358398438	502.6467285156252	254.1920318603517	-1271.389282226563	68.78164672851565	237.3632049560548	-1259.972412109375	253.9586944580079	239.1184844970704	-1289.2041015625	71.63037872314456	52.70545959472659	-1455.7158203125	79.97587585449222	255.3187713623048	-1072.162963867188	526.8096313476565	411.6038818359377	-726.0062255859377	623.8121337890627	190.1231231689454	-1278.484375	443.6399536132815	52.71405029296878	-1198.237060546875	929.253295898438	390.8194274902346	-1071.751342773438	99.40968322753912	408.2113342285159	-667.6278076171877	100.1094284057618	369.0873107910157	-1110.879638671875	102.5797271728516	4.099945068359377	-1072.142333984375	505.4102783203127	411.4340515136721	-942.6862182617192	92.14820098876956	449.7200012207034	-946.670532226563	281.4165954589845	438.8362426757815	-901.895629882813	82.37288665771487	264.7944946289064	-1127.827026367188	85.92134094238284	409.2110900878909	-1209.947143554688	65.05024719238284	231.3780212402345	-1206.141479492188	126.7759399414063	231.9631500244142	-1215.885375976563	65.99986267089847	169.8254547119141	-1271.389282226563	68.78163909912112	237.3631591796876	-880.9725952148442	94.22383880615237	463.2229614257815	-882.3007202148442	157.3132934570313	459.5950317382815	-867.3757324218755	90.96538543701175	401.5811462402346	-942.686157226563	92.14819335937503	449.7200012207034	-1249.134765625	1631.461425781251	305.2018432617189	-1021.496704101563	1629.143432617188	309.4985961914064	-1244.759033203125	1639.460571289063	77.69401550292972	-1246.969604492188	1858.999389648438	313.2436828613282	-1221.092041015625	1393.01708984375	116.7920684814454	-1016.76953125	1380.858520507813	40.23900604248048	-1228.707641601563	1604.650146484376	62.85326004028323	-1143.954467773438	1446.116577148438	314.2411499023439	-1229.558349609375	1401.547729492188	511.0549316406252	-1027.994262695313	1392.933715820313	596.7744140625002	-1219.863891601563	1187.096069335938	466.708679199219	-1143.954345703125	1446.116455078125	314.2410888671876	-1143.954345703125	1446.11669921875	314.2411499023439	-925.4537963867192	1433.687377929688	316.6709594726564	-1145.889892578125	1454.841796875	532.9259033203127	-1156.47021484375	1227.77685546875	322.8417053222657	-1197.34912109375	1102.375244140625	61.73227691650393	-1489.627197265625	1087.83740234375	12.43603134155274	-1242.931396484375	1044.203369140625	349.1452941894532	-1221.092041015625	1393.016967773438	116.7921142578126	-980.1928100585942	930.1337890625005	61.31084823608401	-1135.40771484375	734.601257324219	-2.880710601806642	-1019.785705566407	879.6054687500005	310.9595336914064	-1182.148071289063	1090.318359375	61.70281219482425	-850.1932983398442	837.1300659179692	28.05726432800294	-830.3262329101567	915.5962524414067	-113.7303619384766	-946.9445190429692	728.2781982421877	-45.73873138427736	-980.1928710937505	930.133911132813	61.31084442138675	-1335.90087890625	1135.351318359375	561.2359619140627	-1604.040283203126	1246.450317382813	582.3501586914065	-1297.429565429688	1173.872802734375	847.1093139648442	-1229.558349609375	1401.5478515625	511.0549011230471	-1265.295654296875	870.101196289063	587.4768066406252	-1510.853393554688	808.8237304687505	628.7798461914065	-1231.395141601563	904.0459594726567	839.3854370117192	-1330.958618164063	1116.78369140625	563.0728149414065	-1244.017456054688	712.0913696289065	604.785583496094	-1183.254272460938	736.3137817382815	751.2115478515627	-1097.134765625	724.9609375000002	541.7038574218752	-1265.295532226563	870.101196289063	587.4768066406252	-1052.59228515625	1701.643066406251	247.2929992675782	-1061.9462890625	1693.908203125001	375.1542968750001	-1204.21484375	1698.411376953126	379.5537109375001	-1223.113159179688	1449.186157226563	102.4762496948243	-1197.480224609375	1283.434448242188	51.27155303955081	-1177.684448242188	1111.142211914063	23.93417358398438	-1084.583251953125	1017.152465820313	14.43022823333741	-958.9607543945317	961.1322631835942	73.50838470458987	-997.6126098632817	904.5407714843755	36.77444458007814	-911.8441772460942	895.9902954101567	23.21186637878419	-1232.123413085938	1458.29052734375	522.7886962890627	-1281.738403320313	1250.374389648438	587.0615844726565	-1313.69921875	1133.525268554688	598.599060058594	-1258.15087890625	996.054321289063	611.961608886719	-1226.627807617188	873.6588745117192	578.4927368164065	-1298.766723632813	869.5475463867192	609.1087646484377	-1245.142456054688	794.8759155273442	618.9389648437502	-1229.501098632813	749.2208251953127	149.6180877685547	-1294.21630859375	521.981628417969	194.2910919189454	-1352.890502929688	315.6905212402345	187.9431457519532	-1401.945190429688	88.06822204589847	217.2767944335939	-1263.905517578125	44.78956222534181	244.242645263672	-1042.6005859375	538.7264404296877	463.0266723632815	-1066.09521484375	285.2174377441407	469.9588623046877	-1067.414672851563	99.05833435058599	453.0004577636721	-1157.4052734375	1024.399291992188	212.7561340332032	-1459.853271484375	54.15045547485354	259.7518005371095	-1209.09814453125	1700.182128906251	237.2540893554689	-1064.90380859375	694.0272216796877	496.1860046386721	-1114.795532226563	62.88151550292972	390.1496582031252	-927.7835083007817	70.21522521972659	438.6816406250002	-1093.134887695313	1272.206298828125	318.4512329101564	-1145.20263671875	1028.74072265625	429.4947509765627	-1136.966064453125	1445.718994140625	314.318817138672	-1336.270263671875	1026.951782226563	408.5525512695315	-1274.743041992188	1516.7841796875	307.0855712890626	-1343.086547851563	1035.2451171875	271.3157958984376	-1359.629272460938	1351.31884765625	356.0989685058595	-1343.489135742188	1255.657470703125	320.0741271972657	-2.894071817398072	13.27316761016846	-12.33143043518067	1.825652360916139	-12.2545566558838	-1.721518278121949	0	0	8.943747520446781	1.340778589248658	-3.590598821640016	8.961481094360355	-2.685838460922242	28.25879669189455	18.51937484741212	11.72659683227539	-24.42012977600099	13.27137756347657	4.032958030700685	-17.84632301330567	2.022452116012574	0	0	1.925081133842469	-1.217898011207581	-3.195856571197512	1.255513787269593	1.217898011207581	3.195856571197512	1.255513787269593	-0.5446121096611025	-5.553550243377687	-86.52467346191409	-3.368255853652956	-12.33508110046387	-91.92633819580081	4.324799537658693	0.3503854274749757	-2.659878015518189	-4.324799537658693	-0.3503854274749757	-2.659878015518189	-1.055217742919922	3.752569437026979	2.013550758361817	1.055217742919922	-3.752569437026979	2.013550758361817	13.13004302978516	7.622365474700931	7.667926311492923	-3.851452987813793e-16	2.278867415952957e-12	47.81136703491212	11.99938774108887	102.7603302001954	-0.1976606845855714	8.41325664520264	8.188265800476078	-18.11652183532716	-7.95138679647378e-16	-5.494408313738711e-12	36.6038284301758	-0.3929403424263003	104.7560806274415	-7.225409507751468	2.252090454101563	-0.6365846991539004	3.280786275863649	-2.252090454101563	0.6365846991539004	3.280786275863649	-2.024040460586549	-1.081973195075989	-0.545168995857239	2.024040460586549	1.081973195075989	-0.545168995857239	nan	nan	nan	nan	nan	nan	nan	nan	nan	0	-0.1264867633581162	0	0	-0.9814791679382329	0	0	-0.01798102818429471	0	nan	nan	nan	nan	nan	nan	nan	nan	nan	nan	nan	nan	0	-0.009792629629373554	0	0	-0.01181963924318553	0	0	0.004233295097947122	0	0	0.001955753192305566	0	0	-3.59187433787156e-05	0	0	0.0001290223735850305	0	nan	nan	nan	nan	nan	nan	nan	nan	nan	nan	nan	nan	nan	nan	nan	-0.05235797539353373	-0.242738500237465	-0.3904523849487307	-0.2716164588928224	1.088677048683167	-0.6257573962211611	nan	nan	nan	-0.4403277933597567	1.759490013122559	-0.2578715980052949	nan	nan	nan	nan	nan	nan	nan	nan	nan	nan	nan	nan	nan	nan	nan	0.005765920504927637	0.3556060194969178	0.03646629303693773	0.09319267421960833	0.3609030544757844	0.04847411811351779	0.01096578966826201	0.1305099874734879	-0.0722078084945679	0.03681357577443124	0.1366528421640397	-0.09308857470750811	-0.005595200229436161	0.03797734901309015	0.00446573179215193	0.02108440734446049	0.04046043381094934	0.01507099717855454	nan	nan	nan	nan	nan	nan	nan	nan	nan	6.821210110831034e-15	-5.722372055053713	-28.31892204284669	36.40545654296876	-7.393911838531498	-191.2193908691407	nan	nan	nan	79.2951583862305	-33.92704391479494	333.8092041015626	nan	nan	nan	nan	nan	nan	nan	nan	nan	nan	nan	nan	nan	nan	nan	-5.704188823699953	2.33569622039795	9.928900718688968	22.35804176330567	-3.667433500289919	-14.48647785186768	-3.169873714447023	-0.01933223009109498	-5.388424396514894	6.230645656585697	0.05950174480676654	-18.78049278259278	-0.1505557894706727	2.368475843218191e-17	0.2248297780752183	1.392784237861634	-1.776356839400251e-15	0.9448740482330327	-1203.571533203125	1014.474487304688	319.6038208007814	-1203.571533203125	0	319.6038208007814	
52	0.51	-1190.250244140625	926.025512695313	325.4619750976564	-1060.573974609375	923.0230102539067	317.1198730468751	-1198.647827148438	923.6557617187505	195.7761383056642	-1187.406616210938	1055.948364257813	322.9037475585939	-1298.784545898438	523.3482666015627	253.7423706054689	-903.9155273437505	420.0411376953127	326.266326904297	-1226.852416992188	511.7973632812502	-154.3580932617188	-1195.064453125	924.655883789063	260.6655273437501	-1399.360595703125	89.37506866455081	262.4106750488282	-986.5781860351567	-6.638122558593754	244.9861450195314	-1418.199951171875	85.27760314941409	-161.3105163574219	-1303.614990234375	502.5046081542971	254.1586303710939	-1270.567504882813	68.61834716796878	237.3266906738282	-1257.820068359375	253.7098388671876	238.9414672851564	-1288.668823242188	71.47577667236331	52.69696044921878	-1454.77880859375	81.14591979980472	255.5809020996095	-1058.105102539063	524.6499023437502	409.146911621094	-710.4007568359377	624.3104248046877	190.1877136230469	-1262.218139648438	443.1773681640627	47.93542480468751	-1185.436279296875	927.3952636718755	390.258483886719	-1032.22607421875	96.33843231201178	410.2154235839846	-627.1030273437502	120.7199249267579	371.548065185547	-1070.76220703125	92.99750518798831	4.360687255859377	-1056.814453125	503.2887878417971	409.2001647949221	-902.2427368164067	95.7299728393555	449.426208496094	-915.6845092773442	284.4821166992189	437.2276306152346	-864.3158569335942	86.43868255615237	263.8673706054689	-1087.547119140625	80.13641357421878	412.3321533203127	-1209.163818359375	64.4424743652344	231.2419891357423	-1204.914672851563	126.1396484375001	231.7802276611329	-1215.197631835938	65.39492034912112	169.6987304687501	-1270.567626953125	68.6183776855469	237.3267364501954	-840.4746093750005	100.927848815918	461.7908935546877	-844.955200195313	163.8452148437501	457.7246704101565	-827.8323364257817	97.83072662353521	399.9379577636721	-902.2427368164067	95.72998046875003	449.4262390136721	-1235.85986328125	1629.729248046876	306.0652465820314	-1008.228393554688	1626.767211914063	310.3158264160157	-1231.50244140625	1638.139160156251	78.5718688964844	-1233.057373046875	1857.244995117188	314.5296936035157	-1208.311889648438	1391.592895507813	117.0993118286133	-1003.99853515625	1379.028076171875	40.62179565429689	-1215.30078125	1603.355712890626	63.63660812377933	-1131.124877929688	1444.026000976563	314.6936950683595	-1217.084350585938	1399.398071289063	511.3801269531252	-1015.606201171875	1390.100952148438	597.3243408203127	-1207.930541992188	1184.949584960938	466.7227172851565	-1131.124755859375	1444.02587890625	314.6936035156251	-1131.124877929688	1444.026000976563	314.6936950683595	-912.642944335938	1430.966674804688	316.5552673339845	-1132.481567382813	1452.50537109375	533.4049072265627	-1144.246337890625	1225.700927734375	323.0767211914064	-1182.5390625	1101.19189453125	61.25837326049808	-1474.494873046875	1085.121215820313	10.08465194702149	-1229.579223632813	1041.827026367188	348.2744750976564	-1208.311889648438	1391.592895507813	117.099349975586	-963.2097778320317	931.8461914062505	62.17859268188479	-1115.316772460938	734.4862060546877	-3.571628570556642	-1004.047546386719	880.3087768554692	311.350799560547	-1167.18603515625	1089.337646484375	61.32281112670901	-831.6115722656255	840.869995117188	29.76538848876955	-811.3764038085942	920.4116821289067	-111.3340072631837	-926.0457153320317	731.134704589844	-45.63832855224611	-963.209838867188	931.8461914062505	62.17861175537112	-1325.475219726563	1133.935546875	560.848327636719	-1592.876586914063	1246.876831054688	581.0194091796877	-1287.871704101563	1171.882080078125	846.8764648437505	-1217.08447265625	1399.398071289063	511.3802185058596	-1256.556762695313	868.212280273438	587.0405883789065	-1502.6552734375	808.3556518554692	627.3356933593752	-1223.413818359375	901.657592773438	839.1397094726567	-1320.65087890625	1115.334838867188	562.681823730469	-1236.213134765625	710.073425292969	604.4717407226565	-1176.489868164063	733.9521484375002	751.4020996093752	-1088.751831054688	722.218933105469	542.558776855469	-1256.556762695313	868.212280273438	587.0405883789065	-1039.130004882813	1699.465454101563	248.2323150634767	-1048.4873046875	1691.526123046876	376.1176757812501	-1190.731201171875	1696.410644531251	380.5373840332032	-1210.166870117188	1447.799438476563	102.9090576171876	-1183.86181640625	1282.236328125	51.42436599731448	-1162.821533203125	1110.19384765625	23.5432415008545	-1068.399780273438	1017.572570800782	14.47756862640382	-942.5480346679692	963.0876464843755	74.78480529785159	-980.0000610351567	906.1307983398442	37.30562210083009	-894.009643554688	898.8891601562505	24.60835075378419	-1219.505981445313	1456.130493164063	523.194274902344	-1270.601440429688	1248.57421875	587.0496215820315	-1303.46142578125	1131.928588867188	598.3132324218752	-1248.816772460938	994.0885620117192	611.739929199219	-1217.804931640625	871.5698242187505	578.3696899414065	-1290.194091796875	867.801147460938	608.406433105469	-1237.035400390625	792.868041992188	618.6408691406252	-1220.741821289063	748.2476196289065	149.1852416992188	-1288.28662109375	521.662536621094	194.1839294433595	-1349.755493164063	316.1547851562501	187.9337921142579	-1401.359252929688	88.94036865234378	217.4571533203126	-1263.846313476563	44.77563858032228	244.2899017333986	-1028.89892578125	536.3076782226565	460.8319396972659	-1037.730712890625	282.4318847656251	469.8825683593752	-1027.972534179688	96.70719146728521	455.0124206542971	-1146.093994140625	1022.847412109375	211.9754791259767	-1459.636352539063	55.61842727661136	260.1712036132814	-1195.66650390625	1698.468872070313	238.2335205078126	-1052.433349609375	691.1193847656252	493.9230041503909	-1073.466064453125	57.33565139770511	391.9024353027346	-886.3459472656255	74.44049072265628	438.3066406250002	-1080.825805664063	1269.990112304688	318.2596130371095	-1132.059692382813	1026.807861328125	428.7102966308596	-1124.137451171875	1443.608276367188	314.7532043457032	-1323.29638671875	1025.060913085938	409.2365722656252	-1261.740234375	1515.134765625	307.6331176757814	-1331.068969726563	1033.627319335938	272.0144958496095	-1347.018920898438	1349.646606445313	356.331268310547	-1331.174560546875	1254.101196289063	320.8160400390626	-2.893332958221436	13.40555667877198	-13.08934593200684	1.786837339401246	-12.45752906799317	-1.783798933029176	0	0	9.222357749938968	1.227097868919373	-3.143560647964479	9.236365318298343	-2.674506664276124	27.37191009521486	18.65889930725098	9.270546913146976	-24.55897521972658	10.92032146453858	3.74687695503235	-16.72515678405762	1.355830430984498	0	0	1.2984619140625	-1.127767682075501	-3.680509805679323	1.253841996192933	1.127767682075501	3.680509805679323	1.253841996192933	-0.5011145472526553	-5.646206378936769	-86.109489440918	-3.761213064193727	-11.28094959259034	-94.81019592285159	4.373391628265383	0.4827477931976321	-2.658111333847047	-4.373391628265383	-0.4827477931976321	-2.658111333847047	-1.084144949913025	4.084222316741945	2.176323175430299	1.084144949913025	-4.084222316741945	2.176323175430299	13.22496414184571	8.017000198364261	8.246674537658695	8.199867617319973e-16	-2.388596482064132e-12	48.24297332763675	12.02227687835694	103.0305175781251	-0.09635924547910696	8.292793273925785	7.849647998809818	-18.41837882995606	-1.590277359294756e-15	-2.662124210309203e-12	36.6629981994629	-0.3069744110107423	104.5226364135743	-7.208663463592533	2.194950342178346	-0.4876789748668673	3.439353942871096	-2.194950342178346	0.4876789748668673	3.439353942871096	-2.130468845367433	-1.070401549339295	-0.7057337164878847	2.130468845367433	1.070401549339295	-0.7057337164878847	nan	nan	nan	nan	nan	nan	nan	nan	nan	0	0.1834400594234467	0	0	0.4135854542255404	0	0	0.03793161734938623	0	nan	nan	nan	nan	nan	nan	nan	nan	nan	nan	nan	nan	0	-0.008129074238240722	0	0	-0.01203135959804059	0	0	0.004304165951907636	0	0	0.002147510182112456	0	0	5.75272633795976e-06	0	0	0.000104679107607808	0	nan	nan	nan	nan	nan	nan	nan	nan	nan	nan	nan	nan	nan	nan	nan	0.1482474803924561	0.1527893096208573	-0.2514178752899171	0.4236904382705691	0.8983856439590459	0.6604999899864199	nan	nan	nan	-0.2794004976749421	1.337995171546936	1.316299438476563	nan	nan	nan	nan	nan	nan	nan	nan	nan	nan	nan	nan	nan	nan	nan	0.001963323913514615	0.3612494170665742	0.03330846130847932	0.09241873025894168	0.3649131059646608	0.03869077935814859	0.01207638997584582	0.1305607706308365	-0.0747422203421593	0.03505505993962289	0.136233001947403	-0.09534104913473135	-0.007626583334058527	0.0374601222574711	0.003610497107729317	0.02192101627588273	0.04059001058340074	0.0146948890760541	nan	nan	nan	nan	nan	nan	nan	nan	nan	2.652692891464814e-15	-23.13705444335938	-13.91198253631593	-117.2103347778321	-23.9057788848877	119.2534255981446	nan	nan	nan	19.42976188659669	12.50266075134278	-647.0311279296877	nan	nan	nan	nan	nan	nan	nan	nan	nan	nan	nan	nan	nan	nan	nan	-5.814385890960695	2.681373596191407	9.037017822265629	21.82859420776368	-3.40567994117737	-16.33340644836426	-3.58735251426697	0.007951834239065651	-6.098775863647464	5.776546478271486	0.05427567288279536	-19.23271560668946	0.01402521412819625	1.776356799695582e-17	0.1051611453294755	1.453081250190735	-9.00020787335688e-16	0.8945811390876774	-1190.944213867188	1012.91015625	319.5814514160157	-1190.944213867188	0	319.5814514160157	
